<svg width="64" height="64" viewBox="0 0 64 64" fill="none" xmlns="http://www.w3.org/2000/svg">
<path d="M13.131 16.9876L18.1572 10.0607C18.2314 9.95672 18.3293 9.87195 18.4428 9.81346C18.5563 9.75498 18.6822 9.72447 18.8099 9.72447C18.9376 9.72447 19.0634 9.75498 19.177 9.81346C19.2905 9.87195 19.3884 9.95672 19.4625 10.0607L24.4888 16.9876C24.5765 17.108 24.6291 17.2503 24.6409 17.3988C24.6527 17.5473 24.6232 17.6961 24.5557 17.8289C24.4881 17.9616 24.3851 18.0731 24.2581 18.1509C24.1311 18.2288 23.9851 18.27 23.8362 18.2699H20.5273V30.2918H30.2593V12.5452H26.9504C26.8014 12.5452 26.6554 12.5041 26.5284 12.4262C26.4015 12.3484 26.2985 12.2369 26.231 12.1042C26.1634 11.9714 26.1339 11.8226 26.1457 11.6741C26.1575 11.5256 26.2102 11.3833 26.2978 11.2629L31.347 4.336C31.4211 4.23201 31.519 4.14724 31.6325 4.08875C31.7461 4.03027 31.8719 3.99976 31.9996 3.99976C32.1273 3.99976 32.2532 4.03027 32.3667 4.08875C32.4802 4.14724 32.5781 4.23201 32.6523 4.336L37.6786 11.2629C37.7662 11.3833 37.8188 11.5256 37.8306 11.6741C37.8424 11.8226 37.8129 11.9714 37.7454 12.1042C37.6778 12.2369 37.5749 12.3484 37.4479 12.4262C37.3209 12.5041 37.1749 12.5452 37.0259 12.5452H33.717V30.2918H43.449V18.2699H40.1401C39.9912 18.27 39.8452 18.2288 39.7182 18.1509C39.5912 18.0731 39.4882 17.9616 39.4206 17.8289C39.3531 17.6961 39.3236 17.5473 39.3354 17.3988C39.3472 17.2503 39.3998 17.108 39.4875 16.9876L44.5138 10.0607C44.588 9.95672 44.6859 9.87195 44.7994 9.81346C44.9129 9.75498 45.0388 9.72447 45.1665 9.72447C45.2942 9.72447 45.42 9.75498 45.5335 9.81346C45.6471 9.87195 45.745 9.95672 45.8191 10.0607L50.8454 16.9876C50.9331 17.108 50.9857 17.2503 50.9975 17.3988C51.0093 17.5473 50.9798 17.6961 50.9122 17.8289C50.8446 17.9616 50.7417 18.0731 50.6147 18.1509C50.4877 18.2288 50.3417 18.27 50.1928 18.2699H46.8839V32.0092C46.8839 32.4647 46.7029 32.9016 46.3809 33.2236C46.0588 33.5457 45.6219 33.7267 45.1665 33.7267H33.717V57.5643C33.717 58.0198 33.5361 58.4567 33.214 58.7787C32.892 59.1008 32.4551 59.2818 31.9996 59.2818C31.5441 59.2818 31.1073 59.1008 30.7852 58.7787C30.4631 58.4567 30.2822 58.0198 30.2822 57.5643V33.6923H18.8328C18.3773 33.6923 17.9405 33.5114 17.6184 33.1893C17.2963 32.8672 17.1154 32.4304 17.1154 31.9749V18.2356H13.8065C13.6611 18.2355 13.5185 18.1961 13.3937 18.1217C13.2689 18.0472 13.1665 17.9405 13.0973 17.8126C13.0281 17.6848 12.9947 17.5407 13.0007 17.3955C13.0066 17.2503 13.0516 17.1094 13.131 16.9876Z" fill="#FFCF0A"/>
</svg>
