<svg width="64" height="64" viewBox="0 0 64 64" fill="none" xmlns="http://www.w3.org/2000/svg">
<g clip-path="url(#clip0_12215_78004)">
<path d="M32.0028 18.5016C34.6563 18.5016 36.8073 16.3746 36.8073 13.7508C36.8073 11.127 34.6563 9 32.0028 9C29.3493 9 27.1982 11.127 27.1982 13.7508C27.1982 16.3746 29.3493 18.5016 32.0028 18.5016Z" fill="#FF4D37"/>
<path d="M12.7845 29.5035C12.7845 27.1049 10.818 25.1604 8.39227 25.1604C5.96648 25.1604 4 27.1049 4 29.5035V33.0911C4 35.4898 5.96648 37.4343 8.39227 37.4343C10.818 37.4343 12.7845 35.4898 12.7845 33.0911V29.5035Z" fill="#FF4D37"/>
<path d="M51.2155 33.0966C51.2155 35.4952 53.182 37.4397 55.6077 37.4397C58.0335 37.4397 60 35.4952 60 33.0966V29.509C60 27.1103 58.0335 25.1658 55.6077 25.1658C53.182 25.1658 51.2155 27.1103 51.2155 29.509V33.0966Z" fill="#FF4D37"/>
<path d="M42.6729 13.4084H21.3272C14.1835 13.4084 8.39233 19.1348 8.39233 26.1987V40.3153C8.39233 47.3791 14.1835 53.1055 21.3272 53.1055H42.6729C49.8166 53.1055 55.6078 47.3791 55.6078 40.3153V26.1987C55.6078 19.1348 49.8166 13.4084 42.6729 13.4084Z" fill="#87C3FF"/>
<path d="M43.0852 19.9312H20.9204C16.6761 19.9312 13.2354 23.3334 13.2354 27.5303V27.5357C13.2354 31.7326 16.6761 35.1349 20.9204 35.1349H43.0852C47.3295 35.1349 50.7702 31.7326 50.7702 27.5357V27.5303C50.7702 23.3334 47.3295 19.9312 43.0852 19.9312Z" fill="#282B33"/>
<path d="M26.5276 25.3126C26.5276 24.0818 25.5197 23.084 24.2765 23.084C23.0332 23.084 22.0254 24.0818 22.0254 25.3126V29.7482C22.0254 30.979 23.0332 31.9768 24.2765 31.9768C25.5197 31.9768 26.5276 30.979 26.5276 29.7482V25.3126Z" fill="#FFDC44"/>
<path d="M37.4724 29.7482C37.4724 30.979 38.4802 31.9768 39.7235 31.9768C40.9667 31.9768 41.9746 30.979 41.9746 29.7482V25.3126C41.9746 24.0818 40.9667 23.084 39.7235 23.084C38.4802 23.084 37.4724 24.0818 37.4724 25.3126V29.7482Z" fill="#FFDC44"/>
<path d="M36.2852 41.4622H27.715C26.1879 41.4622 24.95 42.6863 24.95 44.1963V44.2018C24.95 45.7118 26.1879 46.9359 27.715 46.9359H36.2852C37.8123 46.9359 39.0503 45.7118 39.0503 44.2018V44.1963C39.0503 42.6863 37.8123 41.4622 36.2852 41.4622Z" fill="#282B33"/>
</g>
<defs>
<clipPath id="clip0_12215_78004">
<rect width="56" height="44.1" fill="white" transform="translate(4 9)"/>
</clipPath>
</defs>
</svg>
